<svg width="18" height="24" viewBox="0 0 18 24" fill="none" xmlns="http://www.w3.org/2000/svg">
<path d="M1.77381 7.1648C1.4447 4.91813 2.97594 2.89527 5.31698 2.15392C6.17912 1.8809 7.09761 2.34946 7.41391 3.22366L8.16445 5.29808C8.41147 5.98084 8.23346 6.7505 7.71458 7.24334L5.48229 9.36352C5.25876 9.57583 5.1595 9.89551 5.22031 10.2032L5.24016 10.2966C5.25249 10.3524 5.27064 10.4313 5.29513 10.53C5.34406 10.7272 5.41855 11.0046 5.52285 11.3347C5.73032 11.9916 6.06112 12.875 6.55334 13.7578C7.04556 14.6405 7.61902 15.3789 8.06464 15.8934C8.28864 16.1519 8.48333 16.3574 8.6238 16.5C8.69411 16.5713 8.75105 16.6269 8.79153 16.6659L8.86084 16.7314C9.08779 16.9399 9.40369 17.0096 9.69303 16.9154L12.5824 15.9737C13.2541 15.7548 13.9867 15.9799 14.4344 16.5429L15.8012 18.2622C16.3702 18.9779 16.3032 20.0283 15.6485 20.6603C13.8573 22.3896 11.3946 22.7437 9.68032 21.3175C8.0277 19.9425 6.08276 17.8991 4.458 15.007C2.82945 12.1082 2.09213 9.33762 1.77381 7.1648ZM7.02939 10.3208L8.88201 8.56122C9.9198 7.57554 10.2758 6.03621 9.78175 4.6707L9.03121 2.59628C8.39479 0.837255 6.54664 -0.105566 4.81188 0.443788C1.90585 1.36406 -0.427506 4.06235 0.0662655 7.43299C0.411111 9.78692 1.20871 12.7798 2.96515 15.9062C4.71445 19.0201 6.81114 21.2243 8.59853 22.7115C11.1675 24.8489 14.5986 24.1189 16.8264 21.9685C18.1484 20.692 18.2835 18.5707 17.1346 17.1257L15.7677 15.4063C14.8727 14.2805 13.4073 13.8301 12.0639 14.2679L9.66593 15.0494C9.57371 14.9512 9.46687 14.8339 9.35036 14.6993C8.95636 14.2445 8.46352 13.607 8.04904 12.8636C7.63456 12.1202 7.34778 11.3595 7.16435 10.7788C7.1101 10.607 7.06537 10.4526 7.02939 10.3208Z" fill="#212121"/>
</svg>
